<mxfile host="app.diagrams.net" agent="Mozilla/5.0 (Windows NT 10.0; Win64; x64) AppleWebKit/537.36 (KHTML, like Gecko) Chrome/138.0.0.0 YaBrowser/25.8.0.0 Safari/537.36" version="28.2.5">
  <diagram id="C5RBs43oDa-KdzZeNtuy" name="Page-1">
    <mxGraphModel dx="2356" dy="880" grid="1" gridSize="10" guides="1" tooltips="1" connect="1" arrows="1" fold="1" page="1" pageScale="1" pageWidth="827" pageHeight="1169" math="0" shadow="0">
      <root>
        <mxCell id="WIyWlLk6GJQsqaUBKTNV-0" />
        <mxCell id="WIyWlLk6GJQsqaUBKTNV-1" parent="WIyWlLk6GJQsqaUBKTNV-0" />
        <mxCell id="HNIqWApR9st45E-Bi-Do-2" value="" style="edgeStyle=orthogonalEdgeStyle;rounded=0;orthogonalLoop=1;jettySize=auto;html=1;" edge="1" parent="WIyWlLk6GJQsqaUBKTNV-1" source="HNIqWApR9st45E-Bi-Do-0" target="HNIqWApR9st45E-Bi-Do-1">
          <mxGeometry relative="1" as="geometry" />
        </mxCell>
        <mxCell id="HNIqWApR9st45E-Bi-Do-0" value="Начало" style="ellipse;whiteSpace=wrap;html=1;" vertex="1" parent="WIyWlLk6GJQsqaUBKTNV-1">
          <mxGeometry x="350" width="100" height="30" as="geometry" />
        </mxCell>
        <mxCell id="HNIqWApR9st45E-Bi-Do-4" value="" style="edgeStyle=orthogonalEdgeStyle;rounded=0;orthogonalLoop=1;jettySize=auto;html=1;" edge="1" parent="WIyWlLk6GJQsqaUBKTNV-1" source="HNIqWApR9st45E-Bi-Do-1" target="HNIqWApR9st45E-Bi-Do-3">
          <mxGeometry relative="1" as="geometry" />
        </mxCell>
        <mxCell id="HNIqWApR9st45E-Bi-Do-1" value="Начальные присваивания&lt;div&gt;(Бесконечное число источников;&lt;/div&gt;&lt;div&gt;пуассоновское распределение источников;&lt;/div&gt;&lt;div&gt;конечное число приборов, равномерное распределение)&lt;/div&gt;" style="rounded=1;whiteSpace=wrap;html=1;" vertex="1" parent="WIyWlLk6GJQsqaUBKTNV-1">
          <mxGeometry x="280" y="50" width="240" height="90" as="geometry" />
        </mxCell>
        <mxCell id="HNIqWApR9st45E-Bi-Do-6" style="edgeStyle=orthogonalEdgeStyle;rounded=0;orthogonalLoop=1;jettySize=auto;html=1;exitX=1;exitY=0.5;exitDx=0;exitDy=0;entryX=0.5;entryY=0;entryDx=0;entryDy=0;" edge="1" parent="WIyWlLk6GJQsqaUBKTNV-1" source="HNIqWApR9st45E-Bi-Do-3" target="HNIqWApR9st45E-Bi-Do-5">
          <mxGeometry relative="1" as="geometry">
            <mxPoint x="680" y="235" as="targetPoint" />
          </mxGeometry>
        </mxCell>
        <mxCell id="HNIqWApR9st45E-Bi-Do-3" value="Конец моделирования?" style="rhombus;whiteSpace=wrap;html=1;" vertex="1" parent="WIyWlLk6GJQsqaUBKTNV-1">
          <mxGeometry x="312.5" y="210" width="175" height="50" as="geometry" />
        </mxCell>
        <mxCell id="HNIqWApR9st45E-Bi-Do-12" value="" style="edgeStyle=orthogonalEdgeStyle;rounded=0;orthogonalLoop=1;jettySize=auto;html=1;" edge="1" parent="WIyWlLk6GJQsqaUBKTNV-1" source="HNIqWApR9st45E-Bi-Do-5" target="HNIqWApR9st45E-Bi-Do-10">
          <mxGeometry relative="1" as="geometry" />
        </mxCell>
        <mxCell id="HNIqWApR9st45E-Bi-Do-5" value="Обработка результатов&lt;div&gt;(сводная таблица результатов)&lt;/div&gt;" style="rounded=1;whiteSpace=wrap;html=1;" vertex="1" parent="WIyWlLk6GJQsqaUBKTNV-1">
          <mxGeometry x="540" y="260" width="120" height="60" as="geometry" />
        </mxCell>
        <mxCell id="HNIqWApR9st45E-Bi-Do-9" value="Да" style="text;html=1;align=center;verticalAlign=middle;whiteSpace=wrap;rounded=0;" vertex="1" parent="WIyWlLk6GJQsqaUBKTNV-1">
          <mxGeometry x="510" y="210" width="60" height="30" as="geometry" />
        </mxCell>
        <mxCell id="HNIqWApR9st45E-Bi-Do-10" value="Конец" style="ellipse;whiteSpace=wrap;html=1;" vertex="1" parent="WIyWlLk6GJQsqaUBKTNV-1">
          <mxGeometry x="555" y="345" width="90" height="30" as="geometry" />
        </mxCell>
        <mxCell id="HNIqWApR9st45E-Bi-Do-22" value="" style="edgeStyle=orthogonalEdgeStyle;rounded=0;orthogonalLoop=1;jettySize=auto;html=1;" edge="1" parent="WIyWlLk6GJQsqaUBKTNV-1" source="HNIqWApR9st45E-Bi-Do-13" target="HNIqWApR9st45E-Bi-Do-21">
          <mxGeometry relative="1" as="geometry" />
        </mxCell>
        <mxCell id="HNIqWApR9st45E-Bi-Do-13" value="Выбор особого события" style="rounded=1;whiteSpace=wrap;html=1;" vertex="1" parent="WIyWlLk6GJQsqaUBKTNV-1">
          <mxGeometry x="140" y="260" width="120" height="60" as="geometry" />
        </mxCell>
        <mxCell id="HNIqWApR9st45E-Bi-Do-17" value="" style="endArrow=classic;html=1;rounded=0;exitX=0;exitY=0.5;exitDx=0;exitDy=0;entryX=0.5;entryY=0;entryDx=0;entryDy=0;" edge="1" parent="WIyWlLk6GJQsqaUBKTNV-1" source="HNIqWApR9st45E-Bi-Do-3" target="HNIqWApR9st45E-Bi-Do-13">
          <mxGeometry width="50" height="50" relative="1" as="geometry">
            <mxPoint x="90" y="250" as="sourcePoint" />
            <mxPoint x="200" y="235" as="targetPoint" />
            <Array as="points">
              <mxPoint x="200" y="235" />
            </Array>
          </mxGeometry>
        </mxCell>
        <mxCell id="HNIqWApR9st45E-Bi-Do-18" value="Нет" style="text;html=1;align=center;verticalAlign=middle;whiteSpace=wrap;rounded=0;" vertex="1" parent="WIyWlLk6GJQsqaUBKTNV-1">
          <mxGeometry x="230" y="210" width="60" height="30" as="geometry" />
        </mxCell>
        <mxCell id="HNIqWApR9st45E-Bi-Do-24" style="edgeStyle=orthogonalEdgeStyle;rounded=0;orthogonalLoop=1;jettySize=auto;html=1;exitX=0;exitY=0.5;exitDx=0;exitDy=0;entryX=0.5;entryY=0;entryDx=0;entryDy=0;" edge="1" parent="WIyWlLk6GJQsqaUBKTNV-1" source="HNIqWApR9st45E-Bi-Do-21" target="HNIqWApR9st45E-Bi-Do-26">
          <mxGeometry relative="1" as="geometry">
            <mxPoint x="-30" y="450" as="targetPoint" />
          </mxGeometry>
        </mxCell>
        <mxCell id="HNIqWApR9st45E-Bi-Do-38" style="edgeStyle=orthogonalEdgeStyle;rounded=0;orthogonalLoop=1;jettySize=auto;html=1;exitX=1;exitY=0.5;exitDx=0;exitDy=0;entryX=0.5;entryY=0;entryDx=0;entryDy=0;" edge="1" parent="WIyWlLk6GJQsqaUBKTNV-1" source="HNIqWApR9st45E-Bi-Do-21" target="HNIqWApR9st45E-Bi-Do-37">
          <mxGeometry relative="1" as="geometry" />
        </mxCell>
        <mxCell id="HNIqWApR9st45E-Bi-Do-21" value="Анализ ОС" style="rhombus;whiteSpace=wrap;html=1;" vertex="1" parent="WIyWlLk6GJQsqaUBKTNV-1">
          <mxGeometry x="150" y="340" width="100" height="40" as="geometry" />
        </mxCell>
        <mxCell id="HNIqWApR9st45E-Bi-Do-25" value="Освобождение прибора" style="text;html=1;align=center;verticalAlign=middle;whiteSpace=wrap;rounded=0;" vertex="1" parent="WIyWlLk6GJQsqaUBKTNV-1">
          <mxGeometry x="-10" y="330" width="150" height="30" as="geometry" />
        </mxCell>
        <mxCell id="HNIqWApR9st45E-Bi-Do-28" style="edgeStyle=orthogonalEdgeStyle;rounded=0;orthogonalLoop=1;jettySize=auto;html=1;exitX=0;exitY=0.5;exitDx=0;exitDy=0;" edge="1" parent="WIyWlLk6GJQsqaUBKTNV-1" source="HNIqWApR9st45E-Bi-Do-26" target="HNIqWApR9st45E-Bi-Do-27">
          <mxGeometry relative="1" as="geometry" />
        </mxCell>
        <mxCell id="HNIqWApR9st45E-Bi-Do-32" style="edgeStyle=orthogonalEdgeStyle;rounded=0;orthogonalLoop=1;jettySize=auto;html=1;exitX=1;exitY=0.5;exitDx=0;exitDy=0;" edge="1" parent="WIyWlLk6GJQsqaUBKTNV-1" source="HNIqWApR9st45E-Bi-Do-26" target="HNIqWApR9st45E-Bi-Do-31">
          <mxGeometry relative="1" as="geometry" />
        </mxCell>
        <mxCell id="HNIqWApR9st45E-Bi-Do-26" value="Буфер пустой?" style="rhombus;whiteSpace=wrap;html=1;" vertex="1" parent="WIyWlLk6GJQsqaUBKTNV-1">
          <mxGeometry x="-100" y="440" width="120" height="50" as="geometry" />
        </mxCell>
        <mxCell id="HNIqWApR9st45E-Bi-Do-30" style="edgeStyle=orthogonalEdgeStyle;rounded=0;orthogonalLoop=1;jettySize=auto;html=1;exitX=0;exitY=0.5;exitDx=0;exitDy=0;" edge="1" parent="WIyWlLk6GJQsqaUBKTNV-1" source="HNIqWApR9st45E-Bi-Do-27">
          <mxGeometry relative="1" as="geometry">
            <mxPoint x="400" y="170" as="targetPoint" />
            <Array as="points">
              <mxPoint x="-240" y="540" />
              <mxPoint x="-240" y="170" />
            </Array>
          </mxGeometry>
        </mxCell>
        <mxCell id="HNIqWApR9st45E-Bi-Do-27" value="Прибор простаивает" style="rounded=1;whiteSpace=wrap;html=1;" vertex="1" parent="WIyWlLk6GJQsqaUBKTNV-1">
          <mxGeometry x="-220" y="520" width="120" height="40" as="geometry" />
        </mxCell>
        <mxCell id="HNIqWApR9st45E-Bi-Do-29" value="Да" style="text;html=1;align=center;verticalAlign=middle;whiteSpace=wrap;rounded=0;" vertex="1" parent="WIyWlLk6GJQsqaUBKTNV-1">
          <mxGeometry x="-160" y="440" width="60" height="30" as="geometry" />
        </mxCell>
        <mxCell id="HNIqWApR9st45E-Bi-Do-35" value="" style="edgeStyle=orthogonalEdgeStyle;rounded=0;orthogonalLoop=1;jettySize=auto;html=1;" edge="1" parent="WIyWlLk6GJQsqaUBKTNV-1" source="HNIqWApR9st45E-Bi-Do-31" target="HNIqWApR9st45E-Bi-Do-34">
          <mxGeometry relative="1" as="geometry" />
        </mxCell>
        <mxCell id="HNIqWApR9st45E-Bi-Do-31" value="Выбор заявки на обслуживание (приоритет по номеру источника, заявки в пакете)" style="rounded=1;whiteSpace=wrap;html=1;" vertex="1" parent="WIyWlLk6GJQsqaUBKTNV-1">
          <mxGeometry x="20" y="520" width="200" height="56.67" as="geometry" />
        </mxCell>
        <mxCell id="HNIqWApR9st45E-Bi-Do-33" value="Нет" style="text;html=1;align=center;verticalAlign=middle;whiteSpace=wrap;rounded=0;" vertex="1" parent="WIyWlLk6GJQsqaUBKTNV-1">
          <mxGeometry x="20" y="440" width="60" height="30" as="geometry" />
        </mxCell>
        <mxCell id="HNIqWApR9st45E-Bi-Do-36" style="edgeStyle=orthogonalEdgeStyle;rounded=0;orthogonalLoop=1;jettySize=auto;html=1;exitX=0;exitY=0.5;exitDx=0;exitDy=0;" edge="1" parent="WIyWlLk6GJQsqaUBKTNV-1" source="HNIqWApR9st45E-Bi-Do-34">
          <mxGeometry relative="1" as="geometry">
            <mxPoint x="-240" y="540" as="targetPoint" />
          </mxGeometry>
        </mxCell>
        <mxCell id="HNIqWApR9st45E-Bi-Do-34" value="Обслуживание заявки" style="rounded=1;whiteSpace=wrap;html=1;" vertex="1" parent="WIyWlLk6GJQsqaUBKTNV-1">
          <mxGeometry x="45" y="600" width="150" height="60" as="geometry" />
        </mxCell>
        <mxCell id="HNIqWApR9st45E-Bi-Do-48" style="edgeStyle=orthogonalEdgeStyle;rounded=0;orthogonalLoop=1;jettySize=auto;html=1;exitX=1;exitY=0.5;exitDx=0;exitDy=0;entryX=0.5;entryY=0;entryDx=0;entryDy=0;" edge="1" parent="WIyWlLk6GJQsqaUBKTNV-1" source="HNIqWApR9st45E-Bi-Do-37" target="HNIqWApR9st45E-Bi-Do-47">
          <mxGeometry relative="1" as="geometry" />
        </mxCell>
        <mxCell id="HNIqWApR9st45E-Bi-Do-37" value="Есть ли свободные приборы?" style="rhombus;whiteSpace=wrap;html=1;" vertex="1" parent="WIyWlLk6GJQsqaUBKTNV-1">
          <mxGeometry x="400" y="425" width="160" height="80" as="geometry" />
        </mxCell>
        <mxCell id="HNIqWApR9st45E-Bi-Do-39" value="Поступление заявки" style="text;html=1;align=center;verticalAlign=middle;whiteSpace=wrap;rounded=0;" vertex="1" parent="WIyWlLk6GJQsqaUBKTNV-1">
          <mxGeometry x="280" y="330" width="150" height="30" as="geometry" />
        </mxCell>
        <mxCell id="HNIqWApR9st45E-Bi-Do-43" value="" style="edgeStyle=orthogonalEdgeStyle;rounded=0;orthogonalLoop=1;jettySize=auto;html=1;" edge="1" parent="WIyWlLk6GJQsqaUBKTNV-1" source="HNIqWApR9st45E-Bi-Do-40" target="HNIqWApR9st45E-Bi-Do-42">
          <mxGeometry relative="1" as="geometry" />
        </mxCell>
        <mxCell id="HNIqWApR9st45E-Bi-Do-40" value="Прибор поставлен на обслуживание (выбор по кольцу)" style="rounded=1;whiteSpace=wrap;html=1;" vertex="1" parent="WIyWlLk6GJQsqaUBKTNV-1">
          <mxGeometry x="312.5" y="528" width="145" height="56" as="geometry" />
        </mxCell>
        <mxCell id="HNIqWApR9st45E-Bi-Do-44" style="edgeStyle=orthogonalEdgeStyle;rounded=0;orthogonalLoop=1;jettySize=auto;html=1;exitX=0;exitY=0.75;exitDx=0;exitDy=0;" edge="1" parent="WIyWlLk6GJQsqaUBKTNV-1" source="HNIqWApR9st45E-Bi-Do-42">
          <mxGeometry relative="1" as="geometry">
            <mxPoint x="-240" y="630" as="targetPoint" />
          </mxGeometry>
        </mxCell>
        <mxCell id="HNIqWApR9st45E-Bi-Do-42" value="Формирование следующей&lt;div&gt;заявки&lt;/div&gt;" style="rounded=1;whiteSpace=wrap;html=1;" vertex="1" parent="WIyWlLk6GJQsqaUBKTNV-1">
          <mxGeometry x="328.75" y="710" width="112.5" height="56" as="geometry" />
        </mxCell>
        <mxCell id="HNIqWApR9st45E-Bi-Do-45" style="edgeStyle=orthogonalEdgeStyle;rounded=0;orthogonalLoop=1;jettySize=auto;html=1;exitX=0;exitY=0.5;exitDx=0;exitDy=0;entryX=0.446;entryY=-0.019;entryDx=0;entryDy=0;entryPerimeter=0;" edge="1" parent="WIyWlLk6GJQsqaUBKTNV-1" source="HNIqWApR9st45E-Bi-Do-37" target="HNIqWApR9st45E-Bi-Do-40">
          <mxGeometry relative="1" as="geometry" />
        </mxCell>
        <mxCell id="HNIqWApR9st45E-Bi-Do-46" value="Да" style="text;html=1;align=center;verticalAlign=middle;whiteSpace=wrap;rounded=0;" vertex="1" parent="WIyWlLk6GJQsqaUBKTNV-1">
          <mxGeometry x="355" y="440" width="60" height="30" as="geometry" />
        </mxCell>
        <mxCell id="HNIqWApR9st45E-Bi-Do-51" style="edgeStyle=orthogonalEdgeStyle;rounded=0;orthogonalLoop=1;jettySize=auto;html=1;exitX=0;exitY=0.5;exitDx=0;exitDy=0;entryX=0.5;entryY=0;entryDx=0;entryDy=0;" edge="1" parent="WIyWlLk6GJQsqaUBKTNV-1" source="HNIqWApR9st45E-Bi-Do-47" target="HNIqWApR9st45E-Bi-Do-50">
          <mxGeometry relative="1" as="geometry" />
        </mxCell>
        <mxCell id="HNIqWApR9st45E-Bi-Do-55" style="edgeStyle=orthogonalEdgeStyle;rounded=0;orthogonalLoop=1;jettySize=auto;html=1;exitX=1;exitY=0.5;exitDx=0;exitDy=0;entryX=0.5;entryY=0;entryDx=0;entryDy=0;" edge="1" parent="WIyWlLk6GJQsqaUBKTNV-1" source="HNIqWApR9st45E-Bi-Do-47" target="HNIqWApR9st45E-Bi-Do-54">
          <mxGeometry relative="1" as="geometry" />
        </mxCell>
        <mxCell id="HNIqWApR9st45E-Bi-Do-47" value="Есть ли место в буфере?" style="rhombus;whiteSpace=wrap;html=1;" vertex="1" parent="WIyWlLk6GJQsqaUBKTNV-1">
          <mxGeometry x="610" y="516" width="140" height="80" as="geometry" />
        </mxCell>
        <mxCell id="HNIqWApR9st45E-Bi-Do-49" value="Нет" style="text;html=1;align=center;verticalAlign=middle;whiteSpace=wrap;rounded=0;" vertex="1" parent="WIyWlLk6GJQsqaUBKTNV-1">
          <mxGeometry x="585" y="440" width="60" height="30" as="geometry" />
        </mxCell>
        <mxCell id="HNIqWApR9st45E-Bi-Do-58" style="edgeStyle=orthogonalEdgeStyle;rounded=0;orthogonalLoop=1;jettySize=auto;html=1;exitX=0.5;exitY=1;exitDx=0;exitDy=0;entryX=1;entryY=0.75;entryDx=0;entryDy=0;" edge="1" parent="WIyWlLk6GJQsqaUBKTNV-1" source="HNIqWApR9st45E-Bi-Do-50" target="HNIqWApR9st45E-Bi-Do-42">
          <mxGeometry relative="1" as="geometry">
            <mxPoint x="562.3478260869567" y="770" as="targetPoint" />
          </mxGeometry>
        </mxCell>
        <mxCell id="HNIqWApR9st45E-Bi-Do-50" value="Поместить заявку в буфер&lt;div&gt;(на свободное место)&lt;/div&gt;" style="rounded=1;whiteSpace=wrap;html=1;" vertex="1" parent="WIyWlLk6GJQsqaUBKTNV-1">
          <mxGeometry x="487.5" y="630" width="145" height="56" as="geometry" />
        </mxCell>
        <mxCell id="HNIqWApR9st45E-Bi-Do-52" value="Да" style="text;html=1;align=center;verticalAlign=middle;whiteSpace=wrap;rounded=0;" vertex="1" parent="WIyWlLk6GJQsqaUBKTNV-1">
          <mxGeometry x="560" y="530" width="60" height="30" as="geometry" />
        </mxCell>
        <mxCell id="HNIqWApR9st45E-Bi-Do-60" style="edgeStyle=orthogonalEdgeStyle;rounded=0;orthogonalLoop=1;jettySize=auto;html=1;exitX=0.5;exitY=1;exitDx=0;exitDy=0;" edge="1" parent="WIyWlLk6GJQsqaUBKTNV-1" source="HNIqWApR9st45E-Bi-Do-54">
          <mxGeometry relative="1" as="geometry">
            <mxPoint x="560" y="750" as="targetPoint" />
            <Array as="points">
              <mxPoint x="797" y="750" />
            </Array>
          </mxGeometry>
        </mxCell>
        <mxCell id="HNIqWApR9st45E-Bi-Do-54" value="Отказ доступа в буфер&lt;div&gt;(отказ самой старой заявке в буфере)&lt;/div&gt;" style="rounded=1;whiteSpace=wrap;html=1;" vertex="1" parent="WIyWlLk6GJQsqaUBKTNV-1">
          <mxGeometry x="720" y="630" width="155" height="56" as="geometry" />
        </mxCell>
        <mxCell id="HNIqWApR9st45E-Bi-Do-56" value="Нет" style="text;html=1;align=center;verticalAlign=middle;whiteSpace=wrap;rounded=0;" vertex="1" parent="WIyWlLk6GJQsqaUBKTNV-1">
          <mxGeometry x="750" y="530" width="60" height="30" as="geometry" />
        </mxCell>
      </root>
    </mxGraphModel>
  </diagram>
</mxfile>
